# xmcd
#
# Track frame offsets: 
#        150
#        21280
#        41455
#        57520
#        80160
#        102090
#        139263
#        153750
#        179580
#
# Disc length: 2621 seconds
#
# Revision: 0
# Processed by: cddbd v1.5.2PL0 Copyright (c) Steve Scherf et al.
# Submitted via: ExactAudioCopyFreeDBPlugin 1.0
#
DISCID=750a3b09
DTITLE=Bega Blues Band - Blues de Timisoara
DYEAR=1995
DGENRE=Blues
TTITLE0=Hey Joe
TTITLE1=Blues de Timisoara
TTITLE2=No mor doggin'
TTITLE3=How insensitive
TTITLE4=Duke
TTITLE5=Hey Baby
TTITLE6=Fine brown frame
TTITLE7=Do like Edy
TTITLE8=Before you accuse me
EXTD=
EXTT0=
EXTT1=
EXTT2=
EXTT3=
EXTT4=
EXTT5=
EXTT6=
EXTT7=
EXTT8=
PLAYORDER=
